<svg xmlns:xlink="http://www.w3.org/1999/xlink" width="276" height="55" viewBox="0 0 276 55" fill="none" xmlns="http://www.w3.org/2000/svg">
                                            <title>Craft CMS</title>
                                            <g clip-path="url(#clip0_16_1673)" fill="none">
                                                <path d="M17.6743 41.889C11.1628 41.889 7.57027 37.7779 8.46841 31.889C9.47882 25.889 14.4186 21.889 20.8178 21.889C24.1859 21.889 27.2171 23.4446 29.0134 25.7779L35.3004 20.6668C31.9323 16.8891 27.1048 15.0002 21.9405 15.0002C11.3874 15.0002 2.18143 22.0002 0.609682 31.889C-0.962063 41.889 5.77399 48.7779 16.4394 48.7779C21.8283 48.7779 27.2171 46.5557 31.9323 42.889L27.4416 37.7779C24.1859 40.6668 20.8178 41.889 17.6743 41.889ZM59.8869 15.3335C59.8869 15.3335 58.5397 15.1113 58.4275 15.1113C56.968 14.8891 55.3963 15.0002 53.9368 15.1113C52.5896 15.2224 51.2423 15.4446 49.8951 15.8891C48.7725 16.2224 47.5375 16.6668 46.5271 17.3335L46.7516 15.7779H39.1175L33.9531 48.0002H41.5873L44.6186 29.2224C44.7308 28.1113 45.1799 27.1113 45.7412 26.2224C46.3026 25.3335 47.0884 24.5557 47.9866 24.0002C48.8847 23.3335 49.7829 22.889 50.7933 22.5557C51.8037 22.2224 52.8141 22.0002 53.9368 21.889C55.3963 21.7779 56.968 21.889 58.4275 22.2224H58.5397C58.7643 22.2224 59.8869 15.3335 59.8869 15.3335ZM86.6066 17.7779C84.4735 16.0002 81.2178 15.0002 77.4007 15.0002C67.8579 15.0002 59.2133 21.7779 57.5293 31.7779C55.9576 41.7779 62.5814 48.5557 71.7873 48.5557C75.9412 48.5557 79.4215 48.0002 82.3405 46.0002L82.1159 47.7779H89.0765L94.1285 15.7779H86.9434L86.6066 17.7779ZM85.0349 31.7779C84.0245 37.889 79.4215 42.1113 73.4713 42.1113C67.4089 42.1113 63.9286 37.6668 64.939 31.6668C65.9494 25.6668 70.7769 21.4446 76.7271 21.4446C82.6773 21.5557 85.933 25.6668 85.0349 31.7779ZM129.381 15.7779L130.84 6.66683L122.083 12.8891L121.634 15.8891H111.755L112.765 9.77794C113.326 6.88905 116.47 7.00016 116.47 7.00016H120.175L121.297 0.333496H117.031H116.021C105.58 0.333496 105.243 8.33349 105.243 8.33349L104.569 12.1113L104.008 15.8891H103.334L94.8021 22.5557H102.885L97.7211 55.1113H105.58L110.744 22.4446H120.624L116.582 48.0002H124.329L128.37 22.4446H138.025L139.148 15.7779H129.381ZM150.15 31.889C151.722 22.0002 160.815 15.0002 171.481 15.0002C176.645 15.0002 181.473 17.0002 184.841 20.6668L178.554 25.7779C176.757 23.4446 173.726 21.889 170.358 21.889C163.959 21.889 159.019 26.0002 158.009 31.889C157.111 37.7779 160.703 41.889 167.215 41.889C170.358 41.889 173.726 40.6668 176.982 37.7779L181.473 42.889C176.757 46.6668 171.369 48.7779 165.98 48.7779C155.314 48.7779 148.578 41.889 150.15 31.889ZM241.087 28.4446L238.056 48.0002H230.421L233.453 29.0002C234.238 24.5557 231.769 21.889 227.39 21.889C222.787 21.889 218.184 24.6668 217.511 29.2224L214.479 48.0002H206.845L209.876 29.0002C210.55 24.6668 207.968 22.0002 203.814 21.889C199.548 22.1113 194.608 24.7779 193.934 29.2224L190.903 48.0002H183.269L188.433 15.7779H196.067L195.843 17.3335C198.425 15.7779 201.344 15.1113 205.049 15.0002H205.723C210.438 15.0002 214.255 16.889 216.276 20.1113C219.419 16.889 224.247 15.0002 229.074 15.0002C237.382 15.0002 242.434 20.4446 241.087 28.4446ZM240.75 44.1113L245.465 38.3335C248.047 40.3335 252.987 41.889 257.141 41.889C260.958 41.889 264.775 41.1113 265.224 38.5557C265.561 36.5557 261.856 35.889 257.702 35.2224C249.058 33.7779 244.679 32.0002 245.577 25.5557C246.925 17.4446 255.345 15.1113 262.305 15.1113C267.245 15.1113 272.409 16.7779 275.89 19.1113L271.174 24.889C268.48 23.2224 265 22.0002 261.07 22.0002C256.467 22.0002 253.773 23.3335 253.436 25.4446C253.212 26.889 254.447 27.4446 259.835 28.3335C267.694 29.6668 274.206 30.889 272.971 38.3335C271.96 45.1113 265 48.889 255.906 48.889C250.854 48.7779 244.343 47.0002 240.75 44.1113Z" fill="#1B1B1F"></path>
                                            </g>
                                            <defs>
                                                <clipPath id="clip0_16_1673">
                                                    <rect width="276" height="55" fill="white"></rect>
                                                </clipPath>
                                            </defs>
                                        </svg>