<svg xmlns:xlink="http://www.w3.org/1999/xlink" width="46" height="46" viewBox="0 0 46 46" fill="none" xmlns="http://www.w3.org/2000/svg">
                                            <path d="M4.0015 38.1012L4 38.3056C4 38.4922 4.1538 38.6435 4.34352 38.6435H9.76388C10.0006 38.6435 10.1927 38.4551 10.1933 38.2222L10.1935 38.1469C10.2794 33.9219 13.7884 30.5229 18.1045 30.5229C22.4746 30.5229 26.0172 34.0073 26.0172 38.3056C26.0172 38.4922 26.171 38.6435 26.3607 38.6435H31.8655C32.0552 38.6435 32.209 38.4922 32.209 38.3056C32.209 31.4103 27.0944 25.6899 20.3931 24.6144C20.3926 24.5932 20.4001 24.5726 20.4141 24.5565L31.9543 11.306H24.0088C23.7589 11.306 23.5214 11.4131 23.3582 11.5993L10.226 26.5914L10.269 5.42319C10.269 5.18993 10.0768 5 9.83965 5H4.50616C4.26939 5 4.07731 5.18851 4.07677 5.42139L4.0015 38.1012Z" fill="#A5A1FF"></path>
                                            <path d="M39.7502 32.356H39.9169C41.7548 32.356 43.2447 33.8214 43.2447 35.6291V35.7931C43.2447 37.6008 41.7548 39.0663 39.9169 39.0663H39.7502C37.9123 39.0663 36.4224 37.6008 36.4224 35.7931V35.6291C36.4224 33.8214 37.9123 32.356 39.7502 32.356Z" fill="#A5A1FF"></path>
                                        </svg>