<svg xmlns:xlink="http://www.w3.org/1999/xlink" width="308" height="55" viewBox="0 0 308 55" fill="none" xmlns="http://www.w3.org/2000/svg">
                                        <path d="M107.217 7.83887C117.931 7.83887 126.616 16.5969 126.616 27.4005C126.616 38.2041 117.931 46.9621 107.217 46.9621C103.182 46.9621 99.4349 45.7199 96.331 43.594L96.329 54.1826C96.3288 54.5036 96.0644 54.7638 95.7383 54.7639H88.4029C88.0916 54.764 87.8365 54.5269 87.814 54.2261L87.8125 54.1826L87.8183 27.0898L87.8208 27.0896L87.8209 27.077C87.9922 16.4226 96.6105 7.83887 107.217 7.83887ZM107.217 16.0914C101.285 16.0914 96.3348 21.0827 96.3348 27.4005C96.3348 33.7183 101.285 38.7096 107.217 38.7096C113.149 38.7096 118.099 33.7183 118.099 27.4005C118.099 21.0827 113.149 16.0914 107.217 16.0914Z" fill="#1B1B1F"></path>
                                        <path fill-rule="evenodd" clip-rule="evenodd" d="M140.173 0.651122V45.7994C140.173 46.1204 139.908 46.3807 139.582 46.3807H132.247C131.921 46.3807 131.656 46.1204 131.656 45.7994V0.651944C131.656 0.330893 131.921 0.0706206 132.247 0.0705321L139.582 0.0698242C139.908 0.0697358 140.173 0.330049 140.173 0.651122C140.173 0.651103 140.173 0.651141 140.173 0.651122Z" fill="#1B1B1F"></path>
                                        <path d="M303.423 37.7256H303.194C300.666 37.7256 298.617 39.7428 298.617 42.2311V42.4568C298.617 44.9451 300.666 46.9623 303.194 46.9623H303.423C305.951 46.9623 308 44.9451 308 42.4568V42.2311C308 39.7428 305.951 37.7256 303.423 37.7256Z" fill="#1B1B1F"></path>
                                        <path d="M164.625 7.83887C175.339 7.83887 184.024 16.5969 184.024 27.4005C184.024 38.2041 175.339 46.9621 164.625 46.9621C153.912 46.9621 145.227 38.2041 145.227 27.4005C145.227 16.5969 153.912 7.83887 164.625 7.83887ZM164.625 16.2224C158.662 16.2224 153.743 21.1824 153.743 27.4005C153.743 33.6186 158.662 38.5786 164.625 38.5786C170.589 38.5786 175.507 33.6186 175.507 27.4005C175.507 21.1824 170.589 16.2224 164.625 16.2224Z" fill="#1B1B1F"></path>
                                        <path d="M206.578 7.83862C217.292 7.83862 225.977 16.5967 225.977 27.4003C225.977 38.2038 217.292 46.9619 206.578 46.9619C195.865 46.9619 187.18 38.2038 187.18 27.4003C187.18 16.5967 195.865 7.83862 206.578 7.83862ZM206.578 16.2222C200.615 16.2222 195.696 21.1822 195.696 27.4003C195.696 33.6183 200.615 38.5783 206.578 38.5783C212.542 38.5783 217.46 33.6183 217.46 27.4003C217.46 21.1822 212.542 16.2222 206.578 16.2222Z" fill="#1B1B1F"></path>
                                        <path d="M275.038 7.52832C284.881 7.52832 292.86 15.3828 292.86 25.0717V46.0702C292.86 46.3913 292.596 46.6516 292.269 46.6516H284.933C284.607 46.6516 284.343 46.3913 284.343 46.0703C284.343 46.0703 284.343 46.0702 284.343 46.0703L284.344 25.0717C284.344 20.0635 280.26 15.994 275.192 15.9131L275.038 15.9119C269.951 15.9119 265.817 19.9313 265.735 24.9202L265.733 25.0717L265.733 46.0702C265.733 46.3913 265.468 46.6516 265.142 46.6516H257.807C257.481 46.6516 257.216 46.3913 257.216 46.0703C257.216 46.0703 257.216 46.0702 257.216 46.0703L257.217 25.0717C257.217 20.0635 253.134 15.994 248.066 15.9131L247.912 15.9119C242.824 15.9119 238.69 19.9313 238.608 24.9202L238.607 25.0717L238.606 46.0702C238.606 46.3913 238.342 46.6516 238.015 46.6516H230.68C230.354 46.6516 230.09 46.3913 230.09 46.0702V25.0717C230.09 15.3828 238.069 7.52832 247.912 7.52832C253.343 7.52832 258.207 9.91995 261.475 13.6917C264.743 9.91995 269.607 7.52832 275.038 7.52832Z" fill="#1B1B1F"></path>
                                        <path fill-rule="evenodd" clip-rule="evenodd" d="M0.503906 45.9155L0.505973 45.634L0.609492 0.650411C0.610229 0.329853 0.874421 0.0703735 1.20006 0.0703735H8.53555C8.86171 0.0703735 9.12612 0.330655 9.12612 0.651728C9.12612 0.652116 9.12612 0.652504 9.12612 0.652891L9.06691 29.7909L27.1285 9.15434C27.3528 8.89797 27.6795 8.75055 28.0233 8.75055H38.9512L23.0792 26.9898C23.0599 27.012 23.0497 27.0404 23.0504 27.0695C32.2671 28.5499 39.3015 36.424 39.3015 45.9155C39.3015 46.1723 39.09 46.3805 38.8291 46.3805H31.258C30.997 46.3805 30.7855 46.1723 30.7855 45.9155C30.7855 39.9989 25.9131 35.2025 19.9027 35.2025C13.9665 35.2025 9.14037 39.8812 9.02218 45.697L9.0219 45.8007C9.02106 46.1212 8.7569 46.3805 8.43133 46.3805H0.976364C0.715433 46.3805 0.503906 46.1723 0.503906 45.9155Z" fill="#1B1B1F"></path>
                                        <path d="M73.5625 27.1296H82.079V45.7994C82.079 46.1204 81.8146 46.3807 81.4884 46.3807H74.153C73.8269 46.3807 73.5625 46.1204 73.5625 45.7994V27.1296ZM62.6801 26.8196C73.3938 26.8196 82.079 35.3692 82.079 45.9156C82.079 46.1725 81.8674 46.3807 81.6065 46.3807H74.0354C73.7889 46.3807 73.5866 46.195 73.5648 45.958L73.5629 45.9156C73.5629 39.9991 68.6905 35.2027 62.6801 35.2027C56.7298 35.2027 51.8949 39.9036 51.7988 45.7385L51.7973 45.9156C51.7973 46.1725 51.5858 46.3807 51.3249 46.3807H43.7537C43.5073 46.3807 43.3049 46.195 43.2832 45.958L43.2812 45.9156C43.2812 35.3692 51.9664 26.8196 62.6801 26.8196ZM62.6801 7.87848C73.3938 7.87848 82.079 16.4281 82.079 26.9745V27.4396H73.5629V26.9745C73.5629 21.0579 68.6905 16.2616 62.6801 16.2616C56.7298 16.2616 51.8949 20.9625 51.7988 26.7974L51.7973 26.9745C51.7973 27.2314 51.5858 27.4396 51.3249 27.4396H43.7537C43.5073 27.4396 43.3049 27.2539 43.2832 27.0169L43.2812 26.9745C43.2812 16.4281 51.9664 7.87848 62.6801 7.87848Z" fill="#1B1B1F"></path>
                                    </svg>