<svg xmlns:xlink="http://www.w3.org/1999/xlink" width="407" height="94" viewBox="0 0 407 94" fill="none" xmlns="http://www.w3.org/2000/svg" style="" transform="">
                        <title>The Craftsmen</title>
                        <path d="M62.3541 4.09829L57.9915 4.09833V18.1802C57.9915 18.2586 57.9915 18.3226 57.9872 18.3747L57.9867 18.381L57.986 18.3875L57.985 18.3966L57.9841 18.4046C57.9833 18.4106 57.9824 18.4165 57.9815 18.4223C57.9789 18.4378 57.9757 18.4528 57.9714 18.4674C57.9704 18.471 57.9693 18.4745 57.9682 18.478L57.9658 18.4851C57.9644 18.4891 57.9629 18.4931 57.9613 18.4971C57.9579 18.5057 57.954 18.5141 57.9496 18.5225C57.9144 18.5904 57.859 18.6458 57.7911 18.6811C57.7868 18.6833 57.7824 18.6854 57.7781 18.6874C57.7736 18.6895 57.769 18.6914 57.7645 18.6932C57.7615 18.6944 57.7586 18.6955 57.7556 18.6965C57.7511 18.6982 57.7464 18.6997 57.7418 18.7012L57.7332 18.7037C57.7047 18.7116 57.6749 18.716 57.6432 18.7186C57.5912 18.7229 57.5272 18.7229 57.4488 18.7229H54.436C54.3974 18.7229 54.3622 18.7229 54.3302 18.7224C54.3063 18.722 54.2842 18.7214 54.2637 18.7202L54.2524 18.7195L54.2415 18.7186C54.1876 18.7141 54.139 18.7046 54.0937 18.6811C54.0258 18.6458 53.9704 18.5904 53.9351 18.5225C53.9214 18.4962 53.9125 18.4688 53.9065 18.4399C53.9043 18.4294 53.9026 18.4187 53.9011 18.4078C53.8996 18.397 53.8985 18.3859 53.8975 18.3747C53.8964 18.3607 53.8955 18.3459 53.8949 18.3302L53.8944 18.3168L53.894 18.3002L53.8938 18.2926C53.8932 18.2589 53.8932 18.2216 53.8932 18.1802V4.09833H49.5549L49.5129 4.09822C49.495 4.09813 49.4779 4.09796 49.4618 4.09763C49.4326 4.09707 49.4063 4.09599 49.3824 4.094C49.3714 4.09309 49.3605 4.09195 49.3499 4.09054C49.3399 4.08919 49.33 4.08759 49.3203 4.08565C49.3055 4.08272 49.2911 4.07902 49.277 4.07434C49.2674 4.07114 49.2579 4.06747 49.2486 4.06327L49.2422 4.06026L49.2346 4.05646C49.1667 4.02118 49.1113 3.9658 49.076 3.89788C49.0648 3.87622 49.0567 3.8538 49.0509 3.83042C49.0445 3.80488 49.0408 3.77818 49.0385 3.75005L49.0372 3.73374L49.0368 3.72669C49.0362 3.7164 49.0358 3.7057 49.0354 3.69453L49.0349 3.67745L49.0347 3.66488C49.0344 3.6489 49.0343 3.6321 49.0342 3.61448L49.0341 3.55568V0.542756C49.0341 0.464461 49.0341 0.40031 49.0385 0.348276C49.0429 0.294391 49.0525 0.245745 49.076 0.200452C49.1113 0.132529 49.1667 0.0771424 49.2346 0.0418713C49.2799 0.018334 49.3285 0.00880031 49.3824 0.00433031L49.3923 0.00356203L49.4005 0.00300328L49.412 0.00233977L49.425 0.00174609L49.4439 0.0011175C49.4828 0 49.5269 0 49.5768 0H62.3079C62.3862 0 62.4503 0 62.5023 0.00433031C62.5184 0.00565734 62.534 0.00743836 62.5492 0.00991781C62.5701 0.0133052 62.5902 0.0179848 62.6096 0.024585C62.6167 0.0269946 62.6237 0.0296661 62.6306 0.0326345C62.6341 0.0341361 62.6376 0.0357251 62.6411 0.0373839C62.6442 0.0388157 62.6472 0.0403173 62.6501 0.0418713C62.7181 0.0771424 62.7734 0.132529 62.8087 0.200452C62.8323 0.245745 62.8418 0.294391 62.8463 0.348276C62.8477 0.365423 62.8487 0.383896 62.8493 0.403732C62.8506 0.444102 62.8506 0.490233 62.8506 0.542756V3.55557C62.8506 3.6339 62.8506 3.69802 62.8463 3.75005C62.844 3.77785 62.8403 3.80427 62.8341 3.82953C62.8282 3.85325 62.8201 3.87594 62.8087 3.89788C62.7734 3.9658 62.7181 4.02118 62.6501 4.05646C62.6048 4.07999 62.5562 4.08953 62.5023 4.094C62.4694 4.09672 62.4317 4.09773 62.3886 4.09812L62.3541 4.09829Z" fill="#FFFFFF"></path>
                        <path d="M75.6435 18.1801V11.4225H69.6919V18.1801C69.6919 18.2033 69.6919 18.2252 69.6917 18.2459C69.6915 18.2953 69.6906 18.338 69.6876 18.3747C69.6831 18.4286 69.6735 18.4772 69.65 18.5225C69.629 18.563 69.6008 18.599 69.5671 18.6289C69.5443 18.6493 69.5189 18.6668 69.4914 18.6811C69.4461 18.7046 69.3975 18.7141 69.3436 18.7186C69.3155 18.721 69.2839 18.722 69.2484 18.7225C69.2342 18.7227 69.2195 18.7228 69.2041 18.7229L69.1492 18.7229H66.1364L66.0806 18.7229C66.0269 18.7227 65.9809 18.7219 65.9418 18.7186C65.8879 18.7141 65.8393 18.7046 65.794 18.6811C65.7261 18.6458 65.6707 18.5904 65.6354 18.5225C65.6119 18.4772 65.6023 18.4286 65.5979 18.3747C65.5969 18.3629 65.5961 18.3505 65.5955 18.3375C65.5951 18.3272 65.5947 18.3165 65.5944 18.3054C65.5935 18.2684 65.5935 18.2268 65.5935 18.1802V0.542756C65.5935 0.464426 65.5935 0.40031 65.5979 0.348276C65.5999 0.323412 65.6031 0.299665 65.6082 0.276826C65.6099 0.268968 65.6119 0.261216 65.6142 0.253568C65.6155 0.249203 65.6168 0.244872 65.6183 0.240542L65.6203 0.234902L65.6231 0.227446C65.6267 0.218297 65.6308 0.209322 65.6354 0.200452C65.6707 0.132529 65.7261 0.0771424 65.794 0.0418713C65.8393 0.018334 65.8879 0.00880031 65.9418 0.00433031C65.966 0.00230484 65.9928 0.00122227 66.0224 0.000663516C66.0387 0.000349219 66.0559 0.000174609 66.074 0.000104766C66.0937 0 66.1144 0 66.1362 0H69.1491L69.2063 6.98438e-05C69.2314 0.000174609 69.2548 0.000419063 69.2766 0.000977813C69.3008 0.00160641 69.3232 0.00261914 69.3436 0.00433031C69.3975 0.00880031 69.4461 0.018334 69.4914 0.0418713C69.5593 0.0771424 69.6147 0.132529 69.65 0.200452C69.6557 0.211382 69.6605 0.222522 69.6647 0.233872C69.6702 0.248853 69.6745 0.264219 69.6779 0.280039C69.6791 0.285626 69.6802 0.291283 69.6812 0.296993C69.6819 0.300747 69.6825 0.304519 69.683 0.308325L69.6846 0.31957L69.6858 0.329697C69.6864 0.335809 69.687 0.342007 69.6876 0.348276C69.6884 0.358857 69.6891 0.369927 69.6897 0.381487C69.6906 0.401305 69.6912 0.422625 69.6915 0.445568C69.6918 0.475199 69.6919 0.50752 69.6919 0.542721V7.30045H75.6435V0.542826C75.6435 0.464496 75.6435 0.40031 75.6479 0.348276C75.6504 0.31744 75.6546 0.288332 75.6622 0.26057C75.6649 0.25046 75.6681 0.240507 75.6718 0.230729C75.6758 0.220462 75.6802 0.210387 75.6854 0.200452C75.7038 0.165076 75.7276 0.133087 75.7558 0.105569C75.7656 0.0960876 75.7758 0.0871475 75.7865 0.0787663C75.7943 0.0726724 75.8024 0.0668754 75.8107 0.0613927C75.8162 0.0577957 75.8218 0.0543035 75.8275 0.0509859C75.8329 0.0478081 75.8384 0.0447698 75.844 0.0418713C75.8893 0.018334 75.9379 0.00880031 75.9918 0.00433031C76.0147 0.00242707 76.0398 0.00136195 76.0675 0.000768281C76.1029 0 76.1423 0 76.1862 0H79.1991C79.2223 0 79.2442 0 79.265 0.000104766C79.2837 0.000209531 79.3015 0.000419063 79.3184 0.000768281C79.3458 0.00136195 79.3709 0.00244453 79.3936 0.00433031C79.4475 0.00880031 79.4961 0.018334 79.5414 0.0418713C79.6093 0.0771424 79.6647 0.132529 79.7 0.200452C79.7235 0.245745 79.733 0.294391 79.7375 0.348276C79.7401 0.379618 79.7412 0.415343 79.7416 0.455923L79.7417 0.47822L79.7418 0.502526L79.7419 18.1801C79.7419 18.2249 79.7418 18.265 79.741 18.3009C79.7404 18.3278 79.7394 18.3524 79.7375 18.3747C79.733 18.4286 79.7235 18.4772 79.7 18.5225C79.6647 18.5904 79.6093 18.6458 79.5414 18.6811C79.5335 18.6852 79.5256 18.6888 79.5175 18.6921C79.5068 18.6965 79.4959 18.7002 79.4847 18.7034C79.4739 18.7064 79.4629 18.7089 79.4517 18.711C79.433 18.7146 79.4137 18.7169 79.3936 18.7186C79.3415 18.7229 79.2775 18.7229 79.1991 18.7229H76.1863C76.108 18.7229 76.0438 18.7229 75.9918 18.7186C75.9379 18.7141 75.8893 18.7046 75.844 18.6811C75.8141 18.6656 75.7866 18.6461 75.7623 18.6235C75.7478 18.6101 75.7345 18.5956 75.7224 18.58C75.7158 18.5716 75.7096 18.5629 75.7037 18.5539C75.6971 18.5438 75.691 18.5333 75.6854 18.5225C75.6782 18.5086 75.6723 18.4943 75.6674 18.4797C75.6629 18.4663 75.6594 18.4525 75.6565 18.4384C75.6558 18.435 75.6552 18.4316 75.6546 18.4281C75.6535 18.4219 75.6525 18.4157 75.6516 18.4093L75.6502 18.3978C75.6492 18.3902 75.6485 18.3825 75.6479 18.3747C75.6467 18.3614 75.6459 18.3473 75.6453 18.3324C75.645 18.3257 75.6447 18.3188 75.6446 18.3117C75.6443 18.3014 75.6441 18.2908 75.6439 18.2798C75.6435 18.2494 75.6435 18.2163 75.6435 18.1801Z" fill="#FFFFFF"></path>
                        <path d="M95.1796 4.12204H87.9005V7.30045H94.5397C94.618 7.30045 94.6821 7.30045 94.7341 7.30478C94.7637 7.30723 94.7916 7.31121 94.8183 7.31816C94.8403 7.32392 94.8615 7.33167 94.882 7.34233C94.9082 7.35596 94.9326 7.3726 94.9546 7.39179C94.9897 7.42228 95.0189 7.45923 95.0405 7.50094C95.0641 7.54623 95.0736 7.59485 95.0781 7.64873C95.0792 7.66224 95.0801 7.67656 95.0807 7.69174C95.0814 7.70986 95.0818 7.72919 95.0821 7.74981C95.0824 7.77841 95.0824 7.80947 95.0824 7.84317V10.8798L95.0824 10.9139C95.0823 10.9395 95.0822 10.9635 95.0819 10.9858C95.0816 11.0023 95.0812 11.0179 95.0806 11.0326C95.08 11.0473 95.0792 11.0611 95.0781 11.0742C95.0736 11.1281 95.0641 11.1767 95.0405 11.222C95.0053 11.29 94.9499 11.3454 94.882 11.3806C94.8716 11.386 94.8611 11.3906 94.8504 11.3947C94.8318 11.4016 94.8126 11.4067 94.7928 11.4105C94.7739 11.4141 94.7544 11.4165 94.7341 11.4182C94.7047 11.4206 94.6714 11.4217 94.6338 11.4221C94.605 11.4225 94.5737 11.4225 94.5396 11.4225H87.9005V14.6246H95.1796C95.258 14.6246 95.3221 14.6246 95.3741 14.629C95.3814 14.6296 95.3887 14.6303 95.3959 14.6311C95.4044 14.6321 95.4129 14.6332 95.4213 14.6346C95.4569 14.6404 95.4902 14.65 95.5219 14.6665C95.54 14.6759 95.5572 14.6867 95.5734 14.6988C95.5816 14.705 95.5896 14.7114 95.5972 14.7182L95.6013 14.7219L95.6067 14.727L95.6134 14.7334C95.6401 14.7602 95.6628 14.7911 95.6805 14.8251C95.6918 14.8468 95.6999 14.8693 95.7057 14.8927C95.712 14.9182 95.7157 14.9449 95.718 14.9729C95.719 14.9842 95.7197 14.9961 95.7203 15.0086C95.7211 15.0261 95.7216 15.0448 95.7219 15.0646C95.7221 15.0761 95.7222 15.0879 95.7223 15.1002L95.7224 15.1429V18.1802C95.7224 18.2586 95.7224 18.3226 95.718 18.3747C95.7136 18.4286 95.704 18.4772 95.6805 18.5225C95.6452 18.5904 95.5899 18.6458 95.5219 18.6811C95.4766 18.7046 95.428 18.7141 95.3741 18.7186C95.3221 18.7229 95.258 18.7229 95.1797 18.7229L84.306 18.7229C84.286 18.7229 84.2671 18.7228 84.2491 18.7226C84.2243 18.7223 84.2014 18.7217 84.1802 18.7206C84.1699 18.72 84.16 18.7194 84.1504 18.7186C84.139 18.7177 84.1278 18.7165 84.1169 18.715C84.1095 18.714 84.1023 18.7129 84.0952 18.7116L84.086 18.7098L84.0756 18.7075C84.0502 18.7016 84.026 18.6932 84.0026 18.6811C83.9347 18.6458 83.8793 18.5904 83.844 18.5225C83.8391 18.513 83.8347 18.5033 83.8309 18.4934L83.8279 18.4852L83.8253 18.4776C83.8244 18.4748 83.8235 18.4719 83.8226 18.469C83.8207 18.4622 83.8189 18.4553 83.8173 18.4484C83.8161 18.4432 83.815 18.438 83.814 18.4328C83.8123 18.4236 83.8108 18.4142 83.8096 18.4047C83.8083 18.3948 83.8073 18.3848 83.8064 18.3747C83.8056 18.3645 83.8049 18.3538 83.8044 18.3427C83.8036 18.3278 83.8032 18.3119 83.8028 18.2952L83.8025 18.2752L83.8023 18.2564C83.8021 18.2327 83.8021 18.2073 83.8021 18.1803V0.542826C83.8021 0.519917 83.8021 0.498213 83.8023 0.477679C83.8025 0.441814 83.8029 0.409494 83.8044 0.380439C83.8049 0.369229 83.8056 0.358508 83.8064 0.348276C83.8109 0.294391 83.8205 0.245745 83.844 0.200452C83.8649 0.160326 83.8927 0.124584 83.926 0.094778C83.9491 0.0741217 83.9748 0.0563115 84.0026 0.0418713C84.0479 0.018334 84.0965 0.00880031 84.1504 0.00433031C84.2024 0 84.2665 0 84.3448 0H95.1796C95.2579 0 95.3221 0 95.3741 0.00433031C95.428 0.00880031 95.4766 0.018334 95.5219 0.0418713C95.5413 0.0519288 95.5596 0.0636277 95.5768 0.0767583C95.594 0.0899937 95.6101 0.104696 95.6248 0.120725C95.6466 0.144612 95.6654 0.171397 95.6805 0.200452C95.704 0.245745 95.7136 0.294391 95.718 0.348276C95.7195 0.365824 95.7205 0.384752 95.7211 0.405111L95.7216 0.422502C95.7224 0.458227 95.7224 0.498161 95.7224 0.542721V3.57932C95.7224 3.6281 95.7224 3.67135 95.7213 3.70961C95.7207 3.7328 95.7197 3.75414 95.718 3.77376C95.7168 3.78916 95.7151 3.80411 95.7128 3.81871C95.707 3.85517 95.6973 3.88918 95.6805 3.92155C95.6452 3.98948 95.5899 4.04486 95.5219 4.08017L95.5179 4.08223L95.5119 4.08514L95.5052 4.08818C95.4964 4.09204 95.4875 4.09543 95.4784 4.09841C95.4727 4.10032 95.4668 4.10205 95.4609 4.10364C95.4525 4.10591 95.4439 4.10786 95.4352 4.10957C95.4156 4.11341 95.3952 4.11596 95.3741 4.11771C95.3676 4.11825 95.3609 4.11872 95.354 4.11914C95.3455 4.11965 95.3368 4.12007 95.3277 4.12042L95.3187 4.12075L95.2995 4.12125C95.2639 4.12204 95.224 4.12204 95.1796 4.12204Z" fill="#FFFFFF"></path>
                        <path d="M152.953 29.7569C150.629 29.7569 148.766 31.6198 148.766 33.9439V38.7849H159.195C159.516 38.7849 159.676 38.7849 159.798 38.8472C159.906 38.9021 159.994 38.9896 160.048 39.0973C160.111 39.2197 160.111 39.3799 160.111 39.7003V47.5162C160.111 47.8366 160.111 47.9968 160.048 48.1192C159.994 48.2269 159.906 48.3144 159.798 48.3693C159.676 48.4317 159.516 48.4317 159.195 48.4317H148.766V73.748C148.766 74.0685 148.766 74.2287 148.704 74.3511C148.649 74.4587 148.561 74.5463 148.454 74.6011C148.331 74.6635 148.171 74.6635 147.851 74.6635H140.107C139.787 74.6635 139.627 74.6635 139.504 74.6011C139.397 74.5463 139.309 74.4587 139.254 74.3511C139.192 74.2287 139.192 74.0685 139.192 73.748V48.4317H136.129C135.809 48.4317 135.648 48.4317 135.526 48.3693C135.418 48.3144 135.331 48.2269 135.276 48.1192C135.214 47.9968 135.214 47.8366 135.214 47.5162V39.7003C135.214 39.3799 135.214 39.2197 135.276 39.0973C135.331 38.9896 135.418 38.9021 135.526 38.8472C135.648 38.7849 135.809 38.7849 136.129 38.7849H139.192V33.9439C139.192 26.393 145.315 20.1828 152.953 20.1828H159.195C159.516 20.1828 159.676 20.1828 159.798 20.2452C159.867 20.28 159.927 20.328 159.976 20.3859C160.004 20.4193 160.028 20.4559 160.048 20.4952C160.111 20.6176 160.111 20.7779 160.111 21.0983V28.8415C160.111 29.1619 160.111 29.3221 160.048 29.4445C159.994 29.5522 159.906 29.6397 159.798 29.6946C159.676 29.7569 159.516 29.7569 159.195 29.7569H152.953Z" fill="#FFFFFF"></path>
                        <path fill-rule="evenodd" clip-rule="evenodd" d="M127.866 30.1813C127.866 29.8609 127.866 29.7007 127.803 29.5783C127.748 29.4706 127.661 29.3831 127.553 29.3282C127.431 29.2659 127.271 29.2659 126.95 29.2659H119.134C118.814 29.2659 118.654 29.2659 118.531 29.3282C118.424 29.3831 118.336 29.4706 118.281 29.5783C118.219 29.7007 118.219 29.8609 118.219 30.1813V33.1781C114.431 30.1898 109.656 28.3939 104.295 28.3939C91.2787 28.3939 80.7967 38.9646 80.7967 51.9647C80.7967 64.8961 91.2827 75.4628 104.295 75.4628C109.656 75.4628 114.431 73.6669 118.219 70.6786V73.748C118.219 74.0685 118.219 74.2287 118.281 74.3511C118.336 74.4587 118.424 74.5463 118.531 74.6011C118.654 74.6635 118.814 74.6635 119.134 74.6635H126.95C127.271 74.6635 127.431 74.6635 127.553 74.6011C127.661 74.5463 127.748 74.4587 127.803 74.3511C127.866 74.2287 127.866 74.0685 127.866 73.748V30.1813ZM104.295 65.816C96.5881 65.816 90.3708 59.5877 90.3708 51.9647C90.3708 44.2634 96.5936 38.0406 104.295 38.0406C111.918 38.0406 118.146 44.2579 118.146 51.9647C118.146 59.5932 111.923 65.816 104.295 65.816Z" fill="#FFFFFF"></path>
                        <path d="M51.4871 60.8425C51.7731 60.9904 51.8811 61.3455 51.7198 61.6241C46.9055 69.9396 37.9733 75.5251 27.7498 75.5251C12.424 75.5251 0 62.9731 0 47.4893C0 32.0055 12.424 19.4534 27.7498 19.4534C38.2344 19.4534 47.361 25.328 52.0806 33.997C52.2377 34.2855 52.112 34.6446 51.8123 34.779L44.1255 38.2248C43.8566 38.3453 43.5408 38.2412 43.3878 37.9892C40.1808 32.7059 34.4025 29.1802 27.807 29.1802C17.7267 29.1802 9.55508 37.4159 9.55508 47.5751C9.55508 57.7344 17.7267 65.97 27.807 65.97C34.3683 65.97 40.1209 62.4808 43.3378 57.2429C43.4981 56.982 43.8319 56.8829 44.1039 57.0236L51.4871 60.8425Z" fill="#FFFFFF"></path>
                        <path d="M65.3025 29.2659C65.6229 29.2659 65.7832 29.2659 65.9056 29.3282C66.0132 29.3831 66.1007 29.4706 66.1556 29.5783C66.218 29.7007 66.218 29.8609 66.218 30.1813V33.1149C70.5793 30.1434 74.7705 28.3939 79.4972 28.3939H80.4259C80.7463 28.3939 80.9065 28.3939 81.0289 28.4563C81.1366 28.5111 81.2241 28.5986 81.2789 28.7063C81.3413 28.8287 81.3413 28.9889 81.3413 29.3093V37.1252C81.3413 37.4456 81.3413 37.6059 81.2789 37.7282C81.2241 37.8359 81.1366 37.9234 81.0289 37.9783C80.9065 38.0406 80.7463 38.0406 80.4259 38.0406H79.4972C72.5753 38.0406 66.4902 43.4189 66.218 51.3438V73.748C66.218 74.0685 66.218 74.2287 66.1556 74.3511C66.1007 74.4587 66.0132 74.5463 65.9056 74.6011C65.7832 74.6635 65.6229 74.6635 65.3025 74.6635H57.5593C57.2389 74.6635 57.0787 74.6635 56.9563 74.6011C56.8486 74.5463 56.7611 74.4587 56.7062 74.3511C56.6439 74.2287 56.6439 74.0685 56.6439 73.748V30.1813C56.6439 29.8609 56.6439 29.7007 56.7062 29.5783C56.7611 29.4706 56.8486 29.3831 56.9563 29.3282C57.0787 29.2659 57.2389 29.2659 57.5593 29.2659H65.3025Z" fill="#FFFFFF"></path>
                        <path d="M165.989 39.0997C165.926 38.9773 165.926 38.8171 165.926 38.4967V30.7535C165.926 30.4331 165.926 30.2728 165.989 30.1504C166.044 30.0428 166.131 29.9553 166.239 29.9004C166.361 29.838 166.521 29.838 166.842 29.838H171.231V21.0983C171.231 20.7779 171.231 20.6176 171.293 20.4952C171.348 20.3876 171.436 20.3001 171.543 20.2452C171.666 20.1828 171.826 20.1828 172.146 20.1828H179.89C180.21 20.1828 180.37 20.1828 180.493 20.2452C180.6 20.3001 180.688 20.3876 180.743 20.4952C180.805 20.6176 180.805 20.7779 180.805 21.0983V29.838H187.883C188.203 29.838 188.363 29.838 188.486 29.9004C188.593 29.9553 188.681 30.0428 188.736 30.1504C188.798 30.2728 188.798 30.4331 188.798 30.7535V38.4967C188.798 38.8171 188.798 38.9773 188.736 39.0997C188.681 39.2074 188.593 39.2949 188.486 39.3498C188.363 39.4121 188.203 39.4121 187.883 39.4121H180.805V73.748C180.805 74.0685 180.805 74.2287 180.743 74.3511C180.715 74.4049 180.68 74.4537 180.637 74.4959C180.595 74.5381 180.546 74.5737 180.493 74.6011C180.37 74.6635 180.21 74.6635 179.89 74.6635H172.146C171.826 74.6635 171.666 74.6635 171.543 74.6011C171.436 74.5463 171.348 74.4587 171.293 74.3511C171.231 74.2287 171.231 74.0685 171.231 73.748V39.4121H166.842C166.521 39.4121 166.361 39.4121 166.239 39.3498C166.131 39.2949 166.044 39.2074 165.989 39.0997Z" fill="#FFFFFF"></path>
                        <path d="M209.319 56.707C206.914 56.4882 204.214 56.1822 201.552 55.1338L201.539 55.1286L201.526 55.1232C196.046 52.8666 192.246 47.9951 192.246 42.591C192.246 33.9975 200.04 28.3939 209.713 28.3939C217.667 28.3939 224.856 32.6237 226.747 39.3291L226.999 40.2229C227.086 40.5313 227.13 40.6855 227.103 40.8203C227.079 40.9388 227.019 41.0468 226.93 41.1288C226.829 41.222 226.675 41.2655 226.367 41.3525L218.445 43.5867C218.349 43.6139 218.282 43.6328 218.229 43.64C218.196 43.6445 218.168 43.6445 218.142 43.6391C218.109 43.6323 218.077 43.6195 218.048 43.6016C218.045 43.5994 218.041 43.5971 218.038 43.5947L218.03 43.589L218.022 43.5836L218.018 43.5802L218.013 43.5759C218.004 43.568 217.995 43.5594 217.987 43.5503C217.94 43.4986 217.92 43.4198 217.878 43.2621L217.52 41.8956C217.292 41.0216 216.51 40.0431 215.064 39.2473C213.643 38.4655 211.755 37.968 209.713 37.968C207.083 37.968 204.879 38.6296 203.457 39.6506C202.619 40.2678 201.82 41.2344 201.82 42.591C201.82 43.6638 202.874 45.327 205.174 46.2591L205.179 46.2613C206.234 46.693 207.472 46.8515 209.109 47.0613L209.116 47.0621C209.505 47.112 209.916 47.1647 210.353 47.2248C212.874 47.4414 215.849 47.7495 218.634 49.0596C223.78 51.4716 227.252 56.1088 227.252 61.2657C227.252 65.4201 225.37 69.1529 221.948 71.7427C218.724 74.2206 214.452 75.4628 209.713 75.4628C205.925 75.4628 202.245 74.5167 199.166 72.653L199.155 72.6462L199.144 72.6392C195.942 70.6382 193.539 67.8139 192.667 64.4123L192.439 63.5235C192.36 63.2164 192.321 63.0629 192.35 62.9298C192.376 62.8127 192.438 62.7067 192.527 62.6267C192.629 62.5357 192.782 62.4945 193.088 62.4121L200.982 60.2869C201.136 60.2452 201.214 60.2243 201.281 60.2386C201.287 60.2397 201.292 60.241 201.297 60.2425C201.312 60.2467 201.327 60.252 201.341 60.2585L201.35 60.2626C201.366 60.2709 201.382 60.2809 201.397 60.2924C201.41 60.3027 201.423 60.3142 201.434 60.3269C201.48 60.3779 201.501 60.4554 201.543 60.6102L201.902 61.9505C202.128 62.7922 202.911 63.7764 204.368 64.5857C205.794 65.3777 207.681 65.8887 209.713 65.8887C212.319 65.8887 214.393 65.2752 215.755 64.3769C217.088 63.4972 217.678 62.4081 217.678 61.2657C217.678 60.32 216.747 58.7876 214.595 57.7751L214.576 57.7658L214.556 57.756C213.324 57.1399 211.595 56.9346 209.319 56.707Z" fill="#FFFFFF"></path>
                        <path d="M286.368 28.3939C279.903 28.3939 274.108 31.3633 270.299 35.978C266.464 31.373 260.729 28.3939 254.251 28.3939C249.887 28.3939 246.073 29.7585 243.015 32.0708V30.1813C243.015 29.8609 243.015 29.7007 242.953 29.5783C242.898 29.4706 242.811 29.3831 242.703 29.3282C242.581 29.2659 242.42 29.2659 242.1 29.2659H234.357C234.036 29.2659 233.876 29.2659 233.754 29.3282C233.646 29.3831 233.559 29.4706 233.504 29.5783C233.441 29.7007 233.441 29.8609 233.441 30.1813V73.6754C233.441 73.9958 233.441 74.156 233.504 74.2784C233.559 74.386 233.646 74.4736 233.754 74.5285C233.876 74.5908 234.036 74.5908 234.357 74.5908H242.1C242.42 74.5908 242.581 74.5908 242.703 74.5285C242.811 74.4736 242.898 74.386 242.953 74.2784C243.015 74.156 243.015 73.9958 243.015 73.6754V49.2761C243.015 43.0348 248.069 38.0406 254.251 38.0406C260.433 38.0406 265.486 43.0348 265.486 49.2761V73.6754C265.486 73.9958 265.486 74.156 265.549 74.2784C265.604 74.386 265.691 74.4736 265.799 74.5285C265.921 74.5908 266.081 74.5908 266.402 74.5908H274.218C274.538 74.5908 274.698 74.5908 274.821 74.5285C274.928 74.4736 275.016 74.386 275.071 74.2784C275.133 74.156 275.133 73.9958 275.133 73.6754V49.2761C275.133 43.0282 280.12 38.0406 286.368 38.0406C292.55 38.0406 297.604 43.0348 297.604 49.2761V73.6754C297.604 73.9958 297.604 74.156 297.666 74.2784C297.721 74.386 297.809 74.4736 297.916 74.5285C298.039 74.5908 298.199 74.5908 298.519 74.5908H306.263C306.583 74.5908 306.743 74.5908 306.866 74.5285C306.973 74.4736 307.061 74.386 307.116 74.2784C307.178 74.156 307.178 73.9958 307.178 73.6754V49.2761C307.178 37.7259 297.855 28.3939 286.368 28.3939Z" fill="#FFFFFF"></path>
                        <path fill-rule="evenodd" clip-rule="evenodd" d="M352.628 67.8658L351.966 68.5282C347.716 72.7779 341.805 75.4628 335.329 75.4628C322.317 75.4628 311.831 64.8961 311.831 51.9647C311.831 38.9646 322.313 28.3939 335.329 28.3939C348.269 28.3939 358.828 38.9606 358.828 51.9647C358.828 52.9972 358.749 54.1085 358.588 55.1517L358.348 56.7154H322.27C324.223 62.0174 329.328 65.816 335.329 65.816C339.187 65.816 342.645 64.2762 345.143 61.7783L345.794 61.1273C346.019 60.9025 346.131 60.7901 346.261 60.7476C346.375 60.7101 346.498 60.7096 346.613 60.746C346.743 60.7874 346.856 60.8987 347.083 61.1213L352.622 66.5655C352.853 66.7919 352.968 66.9051 353.011 67.0362C353.05 67.1515 353.05 67.2761 353.013 67.3917C352.991 67.4601 352.949 67.5239 352.883 67.6014C352.821 67.6729 352.738 67.7562 352.628 67.8658ZM322.27 47.1413H348.316C346.363 41.8359 341.263 38.0406 335.329 38.0406C329.328 38.0406 324.223 41.8392 322.27 47.1413Z" fill="#FFFFFF"></path>
                        <path d="M373.138 32.4039C376.468 29.8699 380.607 28.3939 385.246 28.3939C397.314 28.3939 407 38.1617 407 50.1481V73.748C407 73.9517 407 74.0906 406.984 74.1963C406.982 74.2076 406.98 74.2186 406.978 74.2291C406.975 74.2453 406.971 74.2606 406.967 74.2753C406.961 74.2959 406.954 74.3152 406.946 74.3336L406.943 74.3409L406.938 74.3511C406.883 74.4587 406.795 74.5463 406.688 74.6011C406.565 74.6635 406.405 74.6635 406.085 74.6635H398.341C398.021 74.6635 397.861 74.6635 397.738 74.6011C397.631 74.5463 397.543 74.4587 397.488 74.3511C397.426 74.2287 397.426 74.0685 397.426 73.748V50.1481C397.426 43.4704 392.009 38.0406 385.246 38.0406C378.562 38.0406 373.138 43.4641 373.138 50.1481V73.748C373.138 74.0685 373.138 74.2287 373.076 74.3511C373.021 74.4587 372.934 74.5463 372.826 74.6011C372.704 74.6635 372.543 74.6635 372.223 74.6635H364.48C364.159 74.6635 363.999 74.6635 363.877 74.6011C363.769 74.5463 363.682 74.4587 363.627 74.3511C363.564 74.2287 363.564 74.0685 363.564 73.748V30.1813C363.564 29.8609 363.564 29.7007 363.627 29.5783C363.682 29.4706 363.769 29.3831 363.877 29.3282C363.999 29.2659 364.159 29.2659 364.48 29.2659H372.223C372.543 29.2659 372.704 29.2659 372.826 29.3282C372.934 29.3831 373.021 29.4706 373.076 29.5783C373.138 29.7007 373.138 29.8609 373.138 30.1813V32.4039Z" fill="#FFFFFF"></path>
                    </svg>