<svg xmlns:xlink="http://www.w3.org/1999/xlink" class="craftsmen" width="101" height="24" viewBox="0 0 101 24" fill="none" xmlns="http://www.w3.org/2000/svg">
                <title>Craftsmen</title>
                <path d="M15.4736 1.01702L14.391 1.01703V4.51155C14.391 4.53099 14.391 4.5469 14.39 4.55981L14.3898 4.56138L14.3897 4.56298L14.3894 4.56525L14.3892 4.56724C14.389 4.56873 14.3888 4.57019 14.3885 4.57164C14.3879 4.57547 14.3871 4.57919 14.386 4.58283C14.3858 4.5837 14.3855 4.58458 14.3852 4.58544L14.3846 4.58721C14.3843 4.58821 14.3839 4.58921 14.3835 4.5902C14.3827 4.59232 14.3817 4.59442 14.3806 4.59649C14.3719 4.61335 14.3581 4.62709 14.3413 4.63584C14.3402 4.6364 14.3391 4.63692 14.338 4.63742C14.3369 4.63792 14.3358 4.6384 14.3347 4.63885C14.3339 4.63914 14.3332 4.63942 14.3325 4.63968C14.3313 4.64009 14.3302 4.64047 14.329 4.64083L14.3269 4.64146C14.3199 4.64342 14.3124 4.64451 14.3046 4.64516C14.2917 4.64624 14.2758 4.64624 14.2563 4.64624H13.5087C13.4991 4.64624 13.4904 4.64623 13.4824 4.6461C13.4765 4.64601 13.471 4.64584 13.4659 4.64555L13.4631 4.64537L13.4604 4.64516C13.447 4.64405 13.435 4.64169 13.4237 4.63584C13.4069 4.62709 13.3931 4.61335 13.3844 4.59649C13.381 4.58997 13.3788 4.58317 13.3773 4.576C13.3768 4.57339 13.3763 4.57074 13.3759 4.56803C13.3756 4.56534 13.3753 4.5626 13.3751 4.55981C13.3748 4.55635 13.3746 4.55268 13.3744 4.54878L13.3743 4.54546L13.3742 4.54133L13.3741 4.53945C13.374 4.53108 13.374 4.52181 13.374 4.51155V1.01703H12.2974L12.287 1.017C12.2825 1.01698 12.2783 1.01694 12.2743 1.01686C12.2671 1.01672 12.2605 1.01645 12.2546 1.01595C12.2519 1.01573 12.2492 1.01545 12.2465 1.0151C12.244 1.01476 12.2416 1.01436 12.2392 1.01388C12.2355 1.01316 12.2319 1.01224 12.2285 1.01108C12.2261 1.01028 12.2237 1.00937 12.2214 1.00833L12.2198 1.00758L12.2179 1.00664C12.2011 0.997886 12.1873 0.984142 12.1786 0.967286C12.1758 0.961913 12.1738 0.956349 12.1723 0.950547C12.1707 0.944208 12.1698 0.937583 12.1692 0.930602L12.1689 0.926555L12.1688 0.924805C12.1687 0.922253 12.1686 0.919596 12.1685 0.916823L12.1684 0.912586L12.1683 0.909466C12.1682 0.905501 12.1682 0.901333 12.1682 0.896961L12.1682 0.882367V0.134689C12.1682 0.115259 12.1682 0.0993397 12.1692 0.0864272C12.1704 0.0730554 12.1727 0.0609835 12.1786 0.0497435C12.1873 0.0328879 12.2011 0.0191435 12.2179 0.0103907C12.2292 0.00454971 12.2412 0.00218386 12.2546 0.0010746L12.257 0.000883944L12.2591 0.000745286L12.262 0.00058063L12.2652 0.000433306L12.2699 0.000277316C12.2795 0 12.2905 0 12.3028 0H15.4621C15.4816 0 15.4975 0 15.5104 0.0010746C15.5144 0.00140391 15.5183 0.00184588 15.522 0.00246118C15.5272 0.00330179 15.5322 0.00446305 15.537 0.00610095C15.5388 0.00669891 15.5405 0.00736187 15.5422 0.00809849C15.5431 0.00847113 15.544 0.00886544 15.5449 0.00927708C15.5456 0.00963239 15.5463 0.010005 15.5471 0.0103907C15.5639 0.0191435 15.5777 0.0328879 15.5864 0.0497435C15.5923 0.0609835 15.5947 0.0730554 15.5958 0.0864272C15.5961 0.0906823 15.5964 0.0952666 15.5965 0.100189C15.5968 0.110207 15.5968 0.121655 15.5968 0.134689V0.882341C15.5968 0.901779 15.5968 0.91769 15.5958 0.930602C15.5952 0.937501 15.5943 0.944057 15.5927 0.950327C15.5913 0.956211 15.5893 0.961844 15.5864 0.967286C15.5777 0.984142 15.5639 0.997886 15.5471 1.00664C15.5358 1.01248 15.5238 1.01485 15.5104 1.01595C15.5022 1.01663 15.4929 1.01688 15.4822 1.01698L15.4736 1.01702Z" fill="#FFFFFF"></path>
                <path d="M18.7715 4.51153V2.83457H17.2945V4.51153C17.2945 4.51727 17.2945 4.52271 17.2945 4.52786C17.2944 4.54012 17.2942 4.55071 17.2935 4.55981C17.2924 4.57318 17.29 4.58525 17.2841 4.59649C17.2789 4.60653 17.2719 4.61547 17.2636 4.6229C17.2579 4.62795 17.2516 4.6323 17.2448 4.63584C17.2336 4.64169 17.2215 4.64405 17.2081 4.64516C17.2011 4.64574 17.1933 4.64601 17.1845 4.64613C17.181 4.64618 17.1773 4.64621 17.1735 4.64622L17.1599 4.64624H16.4122L16.3984 4.64622C16.385 4.64617 16.3736 4.64597 16.3639 4.64516C16.3506 4.64405 16.3385 4.64169 16.3273 4.63584C16.3104 4.62709 16.2967 4.61335 16.2879 4.59649C16.2821 4.58525 16.2797 4.57318 16.2786 4.55981C16.2783 4.55689 16.2782 4.55382 16.278 4.55058C16.2779 4.54803 16.2778 4.54538 16.2777 4.54262C16.2775 4.53344 16.2775 4.52312 16.2775 4.51155V0.134689C16.2775 0.115251 16.2775 0.0993397 16.2786 0.0864272C16.2791 0.0802569 16.2799 0.074364 16.2811 0.0686963C16.2816 0.0667464 16.2821 0.0648226 16.2826 0.0629247C16.283 0.0618414 16.2833 0.0607668 16.2837 0.0596922L16.2841 0.0582926L16.2848 0.0564424C16.2857 0.0541719 16.2868 0.0519447 16.2879 0.0497435C16.2967 0.0328879 16.3104 0.0191435 16.3273 0.0103907C16.3385 0.00454971 16.3506 0.00218386 16.3639 0.0010746C16.3699 0.000571964 16.3766 0.000303314 16.3839 0.000164656C16.388 8.66612e-05 16.3923 4.33306e-05 16.3967 2.59984e-05C16.4016 0 16.4068 0 16.4122 0H17.1599L17.1741 1.73322e-05C17.1803 4.33306e-05 17.1861 0.000103993 17.1915 0.000242651C17.1975 0.000398641 17.203 0.000649959 17.2081 0.0010746C17.2215 0.00218386 17.2336 0.00454971 17.2448 0.0103907C17.2617 0.0191435 17.2754 0.0328879 17.2841 0.0497435C17.2856 0.052456 17.2868 0.0552205 17.2878 0.058037C17.2892 0.0617548 17.2902 0.0655678 17.2911 0.0694936C17.2914 0.0708802 17.2916 0.0722841 17.2919 0.073701C17.2921 0.0746326 17.2922 0.0755685 17.2923 0.0765132L17.2927 0.0793036L17.293 0.0818168C17.2932 0.0833334 17.2933 0.0848716 17.2935 0.0864272C17.2937 0.089053 17.2939 0.0918002 17.294 0.0946687C17.2942 0.0995867 17.2944 0.104877 17.2944 0.110571C17.2945 0.117924 17.2945 0.125945 17.2945 0.13468V1.81166H18.7715V0.134706C18.7715 0.115268 18.7715 0.0993397 18.7726 0.0864272C18.7732 0.078775 18.7742 0.0715518 18.7761 0.0646622C18.7768 0.0621534 18.7776 0.0596836 18.7785 0.057257C18.7795 0.0547092 18.7806 0.052209 18.7819 0.0497435C18.7864 0.0409647 18.7923 0.0330266 18.7994 0.0261977C18.8018 0.0238448 18.8043 0.0216263 18.807 0.0195464C18.8089 0.0180342 18.8109 0.0165956 18.813 0.015235C18.8143 0.0143424 18.8157 0.0134758 18.8171 0.0126525C18.8185 0.0118639 18.8198 0.01111 18.8212 0.0103907C18.8325 0.00454971 18.8445 0.00218386 18.8579 0.0010746C18.8636 0.000602295 18.8698 0.000337979 18.8767 0.000190655C18.8855 0 18.8953 0 18.9062 0H19.6538C19.6596 0 19.665 0 19.6702 2.59984e-05C19.6748 5.19967e-05 19.6792 0.000103993 19.6834 0.000190655C19.6902 0.000337979 19.6965 0.000606628 19.7021 0.0010746C19.7155 0.00218386 19.7275 0.00454971 19.7388 0.0103907C19.7556 0.0191435 19.7694 0.0328879 19.7781 0.0497435C19.784 0.0609835 19.7863 0.0730554 19.7874 0.0864272C19.7881 0.094205 19.7884 0.10307 19.7884 0.113141L19.7885 0.118674L19.7885 0.124705L19.7885 4.51153C19.7885 4.52263 19.7885 4.5326 19.7883 4.5415C19.7882 4.54819 19.7879 4.55427 19.7874 4.55981C19.7863 4.57318 19.784 4.58525 19.7781 4.59649C19.7694 4.61335 19.7556 4.62709 19.7388 4.63584C19.7368 4.63686 19.7348 4.63777 19.7328 4.63858C19.7302 4.63967 19.7275 4.64059 19.7247 4.64137C19.722 4.64213 19.7193 4.64276 19.7165 4.64328C19.7119 4.64416 19.7071 4.64474 19.7021 4.64516C19.6892 4.64624 19.6733 4.64624 19.6538 4.64624H18.9062C18.8868 4.64624 18.8708 4.64624 18.8579 4.64516C18.8445 4.64405 18.8325 4.64169 18.8212 4.63584C18.8138 4.63199 18.807 4.62717 18.801 4.62155C18.7974 4.61823 18.7941 4.61463 18.7911 4.61077C18.7894 4.60868 18.7879 4.60651 18.7864 4.60428C18.7848 4.60177 18.7833 4.59917 18.7819 4.59649C18.7801 4.59303 18.7786 4.5895 18.7774 4.58588C18.7763 4.58254 18.7754 4.57912 18.7747 4.57562C18.7745 4.57478 18.7744 4.57393 18.7742 4.57308C18.774 4.57154 18.7737 4.56998 18.7735 4.5684L18.7731 4.56555C18.7729 4.56366 18.7727 4.56175 18.7726 4.55981C18.7723 4.55651 18.7721 4.55302 18.7719 4.54933C18.7719 4.54766 18.7718 4.54594 18.7717 4.54417C18.7717 4.54163 18.7716 4.53899 18.7716 4.53626C18.7715 4.52873 18.7715 4.52051 18.7715 4.51153Z" fill="#FFFFFF"></path>
                <path d="M23.6195 1.02291H21.8131V1.81166H23.4607C23.4801 1.81166 23.496 1.81166 23.509 1.81274C23.5163 1.81334 23.5232 1.81433 23.5298 1.81605C23.5353 1.81748 23.5406 1.81941 23.5456 1.82205C23.5522 1.82544 23.5582 1.82956 23.5637 1.83433C23.5724 1.84189 23.5796 1.85106 23.585 1.86141C23.5908 1.87265 23.5932 1.88472 23.5943 1.89809C23.5946 1.90144 23.5948 1.90499 23.595 1.90876C23.5951 1.91326 23.5952 1.91805 23.5953 1.92317C23.5954 1.93027 23.5954 1.93798 23.5954 1.94634V2.69989L23.5954 2.70837C23.5954 2.71473 23.5953 2.72067 23.5953 2.72621C23.5952 2.73029 23.5951 2.73416 23.5949 2.73783C23.5948 2.74146 23.5946 2.7449 23.5943 2.74815C23.5932 2.76152 23.5908 2.77359 23.585 2.78483C23.5762 2.80169 23.5625 2.81543 23.5456 2.82418C23.5431 2.82552 23.5405 2.82667 23.5378 2.82767C23.5332 2.8294 23.5284 2.83066 23.5235 2.83159C23.5188 2.83249 23.514 2.83308 23.509 2.8335C23.5017 2.83411 23.4934 2.83438 23.4841 2.83449C23.4769 2.83457 23.4691 2.83457 23.4607 2.83457H21.8131V3.62921H23.6195C23.639 3.62921 23.6549 3.62921 23.6678 3.63028C23.6696 3.63043 23.6714 3.63061 23.6732 3.63081C23.6753 3.63105 23.6774 3.63134 23.6795 3.63168C23.6883 3.63312 23.6966 3.63551 23.7045 3.6396C23.7089 3.64193 23.7132 3.64461 23.7172 3.64762C23.7193 3.64914 23.7212 3.65075 23.7231 3.65244L23.7241 3.65334L23.7255 3.6546L23.7271 3.65621C23.7338 3.66286 23.7394 3.67052 23.7438 3.67896C23.7466 3.68435 23.7486 3.68992 23.7501 3.69574C23.7516 3.70206 23.7525 3.70867 23.7531 3.71563C23.7534 3.71844 23.7535 3.7214 23.7537 3.7245C23.7539 3.72884 23.754 3.73347 23.7541 3.7384C23.7541 3.74123 23.7542 3.74417 23.7542 3.74721L23.7542 3.75782V4.51155C23.7542 4.531 23.7542 4.5469 23.7531 4.55981C23.752 4.57318 23.7497 4.58525 23.7438 4.59649C23.7351 4.61335 23.7213 4.62709 23.7045 4.63584C23.6932 4.64169 23.6811 4.64405 23.6678 4.64516C23.6549 4.64624 23.639 4.64624 23.6195 4.64624L20.9211 4.64623C20.9162 4.64622 20.9115 4.6462 20.907 4.64614C20.9009 4.64607 20.8952 4.64592 20.8899 4.64565C20.8874 4.64552 20.8849 4.64536 20.8825 4.64516C20.8797 4.64493 20.8769 4.64464 20.8742 4.64427C20.8724 4.64402 20.8706 4.64374 20.8688 4.64342L20.8665 4.64298L20.864 4.64241C20.8577 4.64094 20.8517 4.63885 20.8459 4.63584C20.829 4.62709 20.8153 4.61335 20.8065 4.59649C20.8053 4.59413 20.8042 4.59172 20.8033 4.58927L20.8025 4.58724L20.8019 4.58536C20.8016 4.58465 20.8014 4.58393 20.8012 4.58322C20.8007 4.58153 20.8003 4.57982 20.7999 4.57809C20.7996 4.57682 20.7993 4.57553 20.7991 4.57423C20.7986 4.57194 20.7983 4.56962 20.798 4.56725C20.7976 4.56481 20.7974 4.56233 20.7972 4.55981C20.797 4.55728 20.7968 4.55463 20.7967 4.55187C20.7965 4.54816 20.7964 4.54424 20.7963 4.54009L20.7962 4.53512L20.7962 4.53046C20.7961 4.52457 20.7961 4.51828 20.7961 4.51156V0.134706C20.7961 0.129021 20.7961 0.123635 20.7961 0.118539C20.7962 0.109639 20.7963 0.101619 20.7967 0.0944087C20.7968 0.0916269 20.797 0.0889664 20.7972 0.0864272C20.7983 0.0730554 20.8007 0.0609835 20.8065 0.0497435C20.8117 0.0397861 20.8186 0.0309164 20.8268 0.0235198C20.8326 0.0183938 20.839 0.0139741 20.8459 0.0103907C20.8571 0.00454971 20.8692 0.00218386 20.8825 0.0010746C20.8954 0 20.9113 0 20.9308 0H23.6195C23.6389 0 23.6549 0 23.6678 0.0010746C23.6811 0.00218386 23.6932 0.00454971 23.7045 0.0103907C23.7093 0.0128865 23.7138 0.0157897 23.7181 0.0190481C23.7224 0.0223326 23.7263 0.025981 23.73 0.0299588C23.7354 0.0358864 23.7401 0.0425333 23.7438 0.0497435C23.7497 0.0609835 23.752 0.0730554 23.7531 0.0864272C23.7535 0.0907819 23.7537 0.095479 23.7539 0.100531L23.754 0.104847C23.7542 0.113712 23.7542 0.123622 23.7542 0.13468V0.888234C23.7542 0.90034 23.7542 0.911073 23.7539 0.920567C23.7538 0.926321 23.7535 0.931616 23.7531 0.936487C23.7528 0.940308 23.7524 0.944018 23.7518 0.94764C23.7504 0.956687 23.748 0.965128 23.7438 0.973162C23.7351 0.990017 23.7213 1.00376 23.7045 1.01252L23.7035 1.01303L23.702 1.01376L23.7003 1.01451C23.6981 1.01547 23.6959 1.01631 23.6937 1.01705C23.6922 1.01752 23.6908 1.01795 23.6893 1.01835C23.6872 1.01891 23.6851 1.0194 23.6829 1.01982C23.6781 1.02077 23.673 1.02141 23.6678 1.02184C23.6662 1.02197 23.6645 1.02209 23.6628 1.02219C23.6607 1.02232 23.6585 1.02242 23.6563 1.02251L23.654 1.02259L23.6493 1.02272C23.6404 1.02291 23.6305 1.02291 23.6195 1.02291Z" fill="#FFFFFF"></path>
                <path d="M37.9564 7.3844C37.3797 7.3844 36.9174 7.84669 36.9174 8.42343V9.62475H39.5055C39.585 9.62475 39.6248 9.62475 39.6551 9.64022C39.6819 9.65384 39.7036 9.67556 39.7172 9.70228C39.7327 9.73265 39.7327 9.77241 39.7327 9.85193V11.7915C39.7327 11.871 39.7327 11.9108 39.7172 11.9411C39.7036 11.9679 39.6819 11.9896 39.6551 12.0032C39.6248 12.0187 39.585 12.0187 39.5055 12.0187H36.9174V18.3011C36.9174 18.3806 36.9174 18.4204 36.9019 18.4508C36.8883 18.4775 36.8666 18.4992 36.8398 18.5128C36.8095 18.5283 36.7697 18.5283 36.6902 18.5283H34.7687C34.6891 18.5283 34.6494 18.5283 34.619 18.5128C34.5923 18.4992 34.5706 18.4775 34.557 18.4508C34.5415 18.4204 34.5415 18.3806 34.5415 18.3011V12.0187H33.7814C33.7019 12.0187 33.6622 12.0187 33.6318 12.0032C33.6051 11.9896 33.5833 11.9679 33.5697 11.9411C33.5543 11.9108 33.5543 11.871 33.5543 11.7915V9.85193C33.5543 9.77241 33.5543 9.73265 33.5697 9.70228C33.5833 9.67556 33.6051 9.65384 33.6318 9.64022C33.6622 9.62475 33.7019 9.62475 33.7814 9.62475H34.5415V8.42343C34.5415 6.54961 36.0609 5.00851 37.9564 5.00851H39.5055C39.585 5.00851 39.6248 5.00851 39.6551 5.02399C39.6721 5.03263 39.687 5.04454 39.6992 5.05892C39.7062 5.06719 39.7122 5.07628 39.7172 5.08604C39.7327 5.11642 39.7327 5.15618 39.7327 5.2357V7.15722C39.7327 7.23674 39.7327 7.2765 39.7172 7.30687C39.7036 7.33359 39.6819 7.35531 39.6551 7.36892C39.6248 7.3844 39.585 7.3844 39.5055 7.3844H37.9564Z" fill="#FFFFFF"></path>
                <path fill-rule="evenodd" clip-rule="evenodd" d="M31.7308 7.48972C31.7308 7.4102 31.7308 7.37044 31.7153 7.34006C31.7017 7.31335 31.68 7.29163 31.6532 7.27801C31.6229 7.26254 31.5831 7.26254 31.5036 7.26254H29.564C29.4845 7.26254 29.4448 7.26254 29.4144 7.27801C29.3877 7.29163 29.366 7.31335 29.3523 7.34006C29.3369 7.37044 29.3369 7.4102 29.3369 7.48972V8.23338C28.3969 7.49181 27.2119 7.04615 25.8815 7.04615C22.6515 7.04615 20.0503 9.66935 20.0503 12.8954C20.0503 16.1044 22.6525 18.7266 25.8815 18.7266C27.2119 18.7266 28.3969 18.281 29.3369 17.5394V18.3011C29.3369 18.3806 29.3369 18.4204 29.3523 18.4508C29.366 18.4775 29.3877 18.4992 29.4144 18.5128C29.4448 18.5283 29.4845 18.5283 29.564 18.5283H31.5036C31.5831 18.5283 31.6229 18.5283 31.6532 18.5128C31.68 18.4992 31.7017 18.4775 31.7153 18.4508C31.7308 18.4204 31.7308 18.3806 31.7308 18.3011V7.48972ZM25.8815 16.3327C23.969 16.3327 22.4262 14.7871 22.4262 12.8954C22.4262 10.9843 23.9704 9.44006 25.8815 9.44006C27.7732 9.44006 29.3188 10.9829 29.3188 12.8954C29.3188 14.7885 27.7746 16.3327 25.8815 16.3327Z" fill="#FFFFFF"></path>
                <path d="M12.7769 15.0985C12.8479 15.1352 12.8747 15.2233 12.8346 15.2925C11.6399 17.356 9.42334 18.7421 6.88631 18.7421C3.0831 18.7421 0 15.6272 0 11.7848C0 7.9424 3.0831 4.82751 6.88631 4.82751C9.48815 4.82751 11.753 6.28534 12.9242 8.4366C12.9632 8.5082 12.932 8.59732 12.8576 8.63067L10.9501 9.48576C10.8833 9.51567 10.805 9.48984 10.767 9.42731C9.97117 8.1162 8.53722 7.24127 6.90051 7.24127C4.39902 7.24127 2.37116 9.28502 2.37116 11.8061C2.37116 14.3272 4.39902 16.3709 6.90051 16.3709C8.52873 16.3709 9.9563 15.5051 10.7546 14.2052C10.7944 14.1405 10.8772 14.1159 10.9447 14.1508L12.7769 15.0985Z" fill="#FFFFFF"></path>
                <path d="M16.2053 7.26254C16.2848 7.26254 16.3246 7.26254 16.3549 7.27801C16.3817 7.29163 16.4034 7.31335 16.417 7.34006C16.4325 7.37044 16.4325 7.4102 16.4325 7.48972V8.21771C17.5148 7.48032 18.5548 7.04615 19.7278 7.04615H19.9583C20.0378 7.04615 20.0775 7.04615 20.1079 7.06163C20.1346 7.07524 20.1563 7.09696 20.17 7.12368C20.1854 7.15404 20.1854 7.19381 20.1854 7.27333V9.21289C20.1854 9.29241 20.1854 9.33217 20.17 9.36254C20.1563 9.38925 20.1346 9.41098 20.1079 9.42458C20.0775 9.44006 20.0378 9.44006 19.9583 9.44006H19.7278C18.0101 9.44006 16.5 10.7747 16.4325 12.7413V18.3011C16.4325 18.3806 16.4325 18.4204 16.417 18.4508C16.4034 18.4775 16.3817 18.4992 16.3549 18.5128C16.3246 18.5283 16.2848 18.5283 16.2053 18.5283H14.2838C14.2042 18.5283 14.1645 18.5283 14.1341 18.5128C14.1074 18.4992 14.0857 18.4775 14.0721 18.4508C14.0566 18.4204 14.0566 18.3806 14.0566 18.3011V7.48972C14.0566 7.4102 14.0566 7.37044 14.0721 7.34006C14.0857 7.31335 14.1074 7.29163 14.1341 7.27801C14.1645 7.26254 14.2042 7.26254 14.2838 7.26254H16.2053Z" fill="#FFFFFF"></path>
                <path d="M41.1913 9.70288C41.1758 9.67251 41.1758 9.63275 41.1758 9.55323V7.6317C41.1758 7.55218 41.1758 7.51242 41.1913 7.48205C41.2049 7.45533 41.2267 7.43361 41.2534 7.42C41.2837 7.40452 41.3235 7.40452 41.403 7.40452H42.4922V5.2357C42.4922 5.15618 42.4922 5.11642 42.5077 5.08604C42.5213 5.05932 42.543 5.03761 42.5697 5.02399C42.6001 5.00851 42.6399 5.00851 42.7194 5.00851H44.6409C44.7204 5.00851 44.7602 5.00851 44.7906 5.02399C44.8173 5.03761 44.839 5.05932 44.8526 5.08604C44.8681 5.11642 44.8681 5.15618 44.8681 5.2357V7.40452H46.6244C46.704 7.40452 46.7437 7.40452 46.7741 7.42C46.8008 7.43361 46.8225 7.45533 46.8361 7.48205C46.8516 7.51242 46.8516 7.55218 46.8516 7.6317V9.55323C46.8516 9.63275 46.8516 9.67251 46.8361 9.70288C46.8225 9.7296 46.8008 9.75131 46.7741 9.76493C46.7437 9.78041 46.704 9.78041 46.6244 9.78041H44.8681V18.3011C44.8681 18.3806 44.8681 18.4204 44.8526 18.4508C44.8458 18.4641 44.837 18.4762 44.8265 18.4867C44.816 18.4972 44.8039 18.506 44.7906 18.5128C44.7602 18.5283 44.7204 18.5283 44.6409 18.5283H42.7194C42.6399 18.5283 42.6001 18.5283 42.5697 18.5128C42.543 18.4992 42.5213 18.4775 42.5077 18.4508C42.4922 18.4204 42.4922 18.3806 42.4922 18.3011V9.78041H41.403C41.3235 9.78041 41.2837 9.78041 41.2534 9.76493C41.2267 9.75131 41.2049 9.7296 41.1913 9.70288Z" fill="#FFFFFF"></path>
                <path d="M51.9441 14.0723C51.3471 14.018 50.6772 13.942 50.0167 13.6818L50.0134 13.6806L50.0102 13.6792C48.6502 13.1192 47.7072 11.9103 47.7072 10.5693C47.7072 8.43673 49.6413 7.04615 52.0417 7.04615C54.0157 7.04615 55.7996 8.09582 56.269 9.75981L56.3315 9.98161C56.3531 10.0581 56.3639 10.0964 56.3573 10.1298C56.3514 10.1593 56.3364 10.1861 56.3144 10.2064C56.2893 10.2295 56.2511 10.2403 56.1745 10.2619L54.2088 10.8164C54.1849 10.8231 54.1683 10.8278 54.1551 10.8296C54.1469 10.8307 54.14 10.8307 54.1335 10.8294C54.1252 10.8277 54.1174 10.8245 54.1102 10.8201C54.1093 10.8195 54.1085 10.8189 54.1076 10.8183L54.1056 10.8169L54.1038 10.8156L54.1028 10.8148L54.1015 10.8137C54.0992 10.8117 54.0971 10.8096 54.095 10.8073C54.0835 10.7945 54.0784 10.7749 54.0681 10.7358L53.9793 10.3967C53.9225 10.1798 53.7285 9.937 53.3696 9.7395C53.0171 9.5455 52.5486 9.42203 52.0417 9.42203C51.3891 9.42203 50.8422 9.58623 50.4894 9.83958C50.2813 9.99275 50.0831 10.2326 50.0831 10.5693C50.0831 10.8355 50.3448 11.2482 50.9154 11.4795L50.9167 11.4801C51.1786 11.5872 51.4856 11.6265 51.8919 11.6786L51.8936 11.6788C51.9901 11.6912 52.0923 11.7043 52.2007 11.7192C52.8263 11.7729 53.5644 11.8494 54.2556 12.1745C55.5325 12.7731 56.3943 13.9238 56.3943 15.2035C56.3943 16.2345 55.9273 17.1608 55.0781 17.8035C54.2779 18.4184 53.2178 18.7266 52.0417 18.7266C51.1017 18.7266 50.1886 18.4919 49.4245 18.0294L49.4217 18.0277L49.4189 18.026C48.6245 17.5294 48.0281 16.8285 47.8117 15.9844L47.7551 15.7638C47.7356 15.6876 47.7258 15.6495 47.7331 15.6165C47.7395 15.5874 47.7549 15.5611 47.777 15.5413C47.8022 15.5187 47.8402 15.5085 47.9161 15.488L49.875 14.9606C49.9135 14.9503 49.9327 14.9451 49.9493 14.9486C49.9507 14.9489 49.9521 14.9493 49.9534 14.9496C49.9572 14.9506 49.9608 14.952 49.9643 14.9536L49.9664 14.9546C49.9705 14.9567 49.9745 14.9591 49.9782 14.962C49.9815 14.9646 49.9846 14.9674 49.9874 14.9706C49.9988 14.9832 50.004 15.0024 50.0143 15.0409L50.1035 15.3735C50.1595 15.5823 50.3539 15.8266 50.7155 16.0274C51.0693 16.224 51.5375 16.3508 52.0417 16.3508C52.6885 16.3508 53.2032 16.1985 53.5411 15.9756C53.872 15.7573 54.0185 15.487 54.0185 15.2035C54.0185 14.9688 53.7873 14.5886 53.2534 14.3373L53.2485 14.335L53.2436 14.3326C52.9378 14.1797 52.5088 14.1287 51.9441 14.0723Z" fill="#FFFFFF"></path>
                <path d="M71.0644 7.04615C69.46 7.04615 68.0219 7.78302 67.0767 8.9282C66.1249 7.78543 64.7018 7.04615 63.0942 7.04615C62.0112 7.04615 61.0648 7.38478 60.306 7.9586V7.48972C60.306 7.4102 60.306 7.37044 60.2906 7.34006C60.2769 7.31335 60.2552 7.29163 60.2285 7.27801C60.1981 7.26254 60.1584 7.26254 60.0789 7.26254H58.1573C58.0778 7.26254 58.0381 7.26254 58.0077 7.27801C57.981 7.29163 57.9592 7.31335 57.9456 7.34006C57.9302 7.37044 57.9302 7.4102 57.9302 7.48971V18.2831C57.9302 18.3626 57.9302 18.4024 57.9456 18.4327C57.9592 18.4594 57.981 18.4812 58.0077 18.4948C58.0381 18.5102 58.0778 18.5102 58.1573 18.5102H60.0789C60.1584 18.5102 60.1981 18.5102 60.2285 18.4948C60.2552 18.4812 60.2769 18.4594 60.2906 18.4327C60.306 18.4024 60.306 18.3626 60.306 18.2831V12.2282C60.306 10.6794 61.5601 9.44006 63.0942 9.44006C64.6283 9.44006 65.8823 10.6794 65.8823 12.2282V18.2831C65.8823 18.3626 65.8823 18.4024 65.8978 18.4327C65.9114 18.4594 65.9332 18.4812 65.9599 18.4948C65.9903 18.5102 66.03 18.5102 66.1095 18.5102H68.0491C68.1286 18.5102 68.1684 18.5102 68.1987 18.4948C68.2255 18.4812 68.2472 18.4594 68.2608 18.4327C68.2763 18.4024 68.2763 18.3626 68.2763 18.2831V12.2282C68.2763 10.6777 69.5139 9.44006 71.0644 9.44006C72.5985 9.44006 73.8526 10.6794 73.8526 12.2282V18.2831C73.8526 18.3626 73.8526 18.4024 73.868 18.4327C73.8817 18.4594 73.9034 18.4812 73.9301 18.4948C73.9605 18.5102 74.0002 18.5102 74.0797 18.5102H76.0013C76.0808 18.5102 76.1205 18.5102 76.1509 18.4948C76.1776 18.4812 76.1994 18.4594 76.213 18.4327C76.2284 18.4024 76.2284 18.3626 76.2284 18.2831V12.2282C76.2284 9.36195 73.9149 7.04615 71.0644 7.04615Z" fill="#FFFFFF"></path>
                <path fill-rule="evenodd" clip-rule="evenodd" d="M87.5072 16.8414L87.3428 17.0058C86.2882 18.0604 84.8213 18.7266 83.2144 18.7266C79.9854 18.7266 77.3832 16.1044 77.3832 12.8954C77.3832 9.66935 79.9844 7.04615 83.2144 7.04615C86.4255 7.04615 89.0457 9.66835 89.0457 12.8954C89.0457 13.1516 89.0261 13.4274 88.9863 13.6863L88.9265 14.0743H79.9737C80.4584 15.3901 81.7251 16.3327 83.2144 16.3327C84.1716 16.3327 85.0299 15.9506 85.6498 15.3307L85.8113 15.1692C85.8671 15.1134 85.895 15.0855 85.9272 15.0749C85.9555 15.0657 85.9861 15.0655 86.0145 15.0746C86.0468 15.0848 86.0749 15.1125 86.1311 15.1677L87.5058 16.5187C87.563 16.5749 87.5915 16.603 87.6023 16.6355C87.6118 16.6641 87.612 16.695 87.6027 16.7237C87.5973 16.7407 87.587 16.7565 87.5704 16.7758C87.5551 16.7935 87.5344 16.8142 87.5072 16.8414ZM79.9737 11.6985H86.4372C85.9525 10.3819 84.6868 9.44006 83.2144 9.44006C81.7251 9.44006 80.4584 10.3827 79.9737 11.6985Z" fill="#FFFFFF"></path>
                <path d="M92.597 8.04127C93.4234 7.41243 94.4505 7.04615 95.6015 7.04615C98.5963 7.04615 101 9.47009 101 12.4446V18.3011C101 18.3517 101 18.3861 100.996 18.4123C100.996 18.4152 100.995 18.4179 100.995 18.4205C100.994 18.4245 100.993 18.4283 100.992 18.4319C100.99 18.4371 100.989 18.4419 100.987 18.4464L100.986 18.4482L100.985 18.4508C100.971 18.4775 100.949 18.4992 100.922 18.5128C100.892 18.5283 100.852 18.5283 100.773 18.5283H98.8513C98.7718 18.5283 98.732 18.5283 98.7017 18.5128C98.675 18.4992 98.6532 18.4775 98.6396 18.4508C98.6241 18.4204 98.6241 18.3806 98.6241 18.3011V12.4446C98.6241 10.7875 97.2798 9.44006 95.6015 9.44006C93.9429 9.44006 92.597 10.7859 92.597 12.4446V18.3011C92.597 18.3806 92.597 18.4204 92.5815 18.4508C92.5679 18.4775 92.5462 18.4992 92.5195 18.5128C92.4891 18.5283 92.4494 18.5283 92.3698 18.5283H90.4483C90.3688 18.5283 90.329 18.5283 90.2987 18.5128C90.272 18.4992 90.2502 18.4775 90.2366 18.4508C90.2211 18.4204 90.2211 18.3806 90.2211 18.3011V7.48971C90.2211 7.4102 90.2211 7.37044 90.2366 7.34006C90.2502 7.31335 90.272 7.29163 90.2987 7.27801C90.329 7.26254 90.3688 7.26254 90.4483 7.26254H92.3698C92.4494 7.26254 92.4891 7.26254 92.5195 7.27801C92.5462 7.29163 92.5679 7.31335 92.5815 7.34006C92.597 7.37044 92.597 7.4102 92.597 7.48972V8.04127Z" fill="#FFFFFF"></path>
              </svg>