<svg xmlns:xlink="http://www.w3.org/1999/xlink" class="kaploom" width="102" height="19" viewBox="0 0 102 19" fill="none" xmlns="http://www.w3.org/2000/svg">
                  <title>kaploom.</title>
                  <path d="M35.8216 3.15869C39.3248 3.15869 42.1647 6.02246 42.1647 9.5551C42.1647 13.0877 39.3248 15.9515 35.8216 15.9515C34.5022 15.9515 33.2769 15.5453 32.262 14.8502L32.2613 18.3125C32.2613 18.4175 32.1748 18.5026 32.0682 18.5026H29.6696C29.5678 18.5026 29.4844 18.4251 29.4771 18.3267L29.4766 18.3125L29.4785 9.45351L29.4793 9.45343L29.4793 9.44933C29.5353 5.96547 32.3534 3.15869 35.8216 3.15869ZM35.8216 5.85718C33.8817 5.85718 32.2632 7.48927 32.2632 9.5551C32.2632 11.6209 33.8817 13.253 35.8216 13.253C37.7614 13.253 39.3799 11.6209 39.3799 9.5551C39.3799 7.48927 37.7614 5.85718 35.8216 5.85718Z" fill="#FFFFFF"></path>
                  <path fill-rule="evenodd" clip-rule="evenodd" d="M46.5973 0.808241V15.5712C46.5973 15.6761 46.5108 15.7613 46.4042 15.7613H44.0056C43.899 15.7613 43.8125 15.6761 43.8125 15.5712V0.80851C43.8125 0.70353 43.899 0.618424 44.0056 0.618396L46.4042 0.618164C46.5108 0.618135 46.5973 0.703236 46.5973 0.808223C46.5973 0.808229 46.5973 0.808235 46.5973 0.808241Z" fill="#FFFFFF"></path>
                  <path d="M99.9798 12.9307H99.9048C99.0783 12.9307 98.4082 13.5903 98.4082 14.4039V14.4777C98.4082 15.2914 99.0783 15.951 99.9048 15.951H99.9798C100.806 15.951 101.476 15.2914 101.476 14.4777V14.4039C101.476 13.5903 100.806 12.9307 99.9798 12.9307Z" fill="#FFFFFF"></path>
                  <path d="M54.5931 3.15869C58.0963 3.15869 60.9362 6.02246 60.9362 9.55511C60.9362 13.0877 58.0963 15.9515 54.5931 15.9515C51.0899 15.9515 48.25 13.0877 48.25 9.55511C48.25 6.02246 51.0899 3.15869 54.5931 3.15869ZM54.5931 5.90001C52.6431 5.90001 51.0348 7.52187 51.0348 9.55511C51.0348 11.5883 52.6431 13.2102 54.5931 13.2102C56.5431 13.2102 58.1515 11.5883 58.1515 9.55511C58.1515 7.52187 56.5431 5.90001 54.5931 5.90001Z" fill="#FFFFFF"></path>
                  <path d="M68.3119 3.15869C71.8151 3.15869 74.655 6.02246 74.655 9.55511C74.655 13.0877 71.8151 15.9515 68.3119 15.9515C64.8087 15.9515 61.9688 13.0877 61.9688 9.55511C61.9688 6.02246 64.8087 3.15869 68.3119 3.15869ZM68.3119 5.90001C66.3619 5.90001 64.7535 7.52187 64.7535 9.55511C64.7535 11.5883 66.3619 13.2102 68.3119 13.2102C70.2619 13.2102 71.8702 11.5883 71.8702 9.55511C71.8702 7.52187 70.2619 5.90001 68.3119 5.90001Z" fill="#FFFFFF"></path>
                  <path d="M90.6976 3.05664C93.916 3.05664 96.5251 5.62495 96.5251 8.79311V15.6594C96.5251 15.7644 96.4386 15.8495 96.3319 15.8495H93.9332C93.8265 15.8495 93.7401 15.7644 93.7401 15.6594C93.7401 15.6594 93.7401 15.6594 93.7401 15.6594L93.7403 8.79311C93.7403 7.15548 92.4052 5.82481 90.748 5.79836L90.6976 5.79796C89.034 5.79796 87.6823 7.11225 87.6554 8.74358L87.655 8.79311L87.6548 15.6594C87.6548 15.7644 87.5684 15.8495 87.4617 15.8495H85.0632C84.9565 15.8495 84.87 15.7644 84.87 15.6594C84.87 15.6594 84.87 15.6594 84.87 15.6594L84.8701 8.79311C84.8701 7.15548 83.535 5.82481 81.8778 5.79836L81.8275 5.79796C80.1639 5.79796 78.8122 7.11225 78.7853 8.74358L78.7849 8.79311L78.7847 15.6594C78.7847 15.7644 78.6982 15.8495 78.5916 15.8495H76.1931C76.0865 15.8495 76 15.7644 76 15.6594V8.79311C76 5.62495 78.6091 3.05664 81.8275 3.05664C83.6035 3.05664 85.1938 3.83867 86.2627 5.072C87.3313 3.83867 88.9217 3.05664 90.6976 3.05664Z" fill="#FFFFFF"></path>
                  <path fill-rule="evenodd" clip-rule="evenodd" d="M0.927734 15.6089L0.92841 15.5169L0.96226 0.807829C0.962501 0.703011 1.04889 0.618164 1.15537 0.618164H3.55398C3.66063 0.618164 3.74709 0.703273 3.74709 0.80826C3.74709 0.808387 3.74709 0.808513 3.74709 0.80864L3.72773 10.3364L9.63364 3.58851C9.70701 3.50468 9.81383 3.45648 9.92624 3.45648H13.4995L8.30959 9.42049C8.30328 9.42774 8.29993 9.43702 8.30016 9.44655C11.3139 9.93063 13.6141 12.5054 13.6141 15.6089C13.6141 15.6929 13.5449 15.761 13.4596 15.761H10.9839C10.8986 15.761 10.8294 15.6929 10.8294 15.6089C10.8294 13.6743 9.23623 12.106 7.27091 12.106C5.32984 12.106 3.75175 13.6358 3.7131 15.5375L3.71302 15.5714C3.71274 15.6762 3.62636 15.761 3.51991 15.761H1.08222C0.996901 15.761 0.927734 15.6929 0.927734 15.6089Z" fill="#FFFFFF"></path>
                  <path d="M24.8157 9.46529H27.6004V15.5701C27.6004 15.6751 27.514 15.7602 27.4073 15.7602H25.0088C24.9021 15.7602 24.8157 15.6751 24.8157 15.5701V9.46529ZM21.2573 9.36392C24.7605 9.36392 27.6004 12.1595 27.6004 15.6081C27.6004 15.6921 27.5313 15.7602 27.446 15.7602H24.9703C24.8897 15.7602 24.8235 15.6994 24.8164 15.6219L24.8158 15.6081C24.8158 13.6734 23.2226 12.1051 21.2573 12.1051C19.3116 12.1051 17.7306 13.6422 17.6992 15.5502L17.6987 15.6081C17.6987 15.6921 17.6295 15.7602 17.5442 15.7602H15.0686C14.988 15.7602 14.9218 15.6994 14.9147 15.6219L14.9141 15.6081C14.9141 12.1595 17.754 9.36392 21.2573 9.36392ZM21.2573 3.17041C24.7605 3.17041 27.6004 5.96602 27.6004 9.41458V9.56666H24.8158V9.41458C24.8158 7.47994 23.2226 5.91159 21.2573 5.91159C19.3116 5.91159 17.7306 7.44873 17.6992 9.35666L17.6987 9.41458C17.6987 9.49857 17.6295 9.56666 17.5442 9.56666H15.0686C14.988 9.56666 14.9218 9.50593 14.9147 9.42843L14.9141 9.41458C14.9141 5.96602 17.754 3.17041 21.2573 3.17041Z" fill="#FFFFFF"></path>
                </svg>