<svg xmlns:xlink="http://www.w3.org/1999/xlink" width="46" height="45" viewBox="0 0 46 45" fill="none" xmlns="http://www.w3.org/2000/svg">
                                            <path fill-rule="evenodd" clip-rule="evenodd" d="M41.1579 0.105225H4.84211C2.15205 0.105225 0 2.20064 0 4.81991V40.18C0 42.7993 2.15205 44.8947 4.84211 44.8947H41.1579C43.7942 44.8947 46 42.7993 46 40.18V4.81991C46 2.20064 43.848 0.105225 41.1579 0.105225ZM22.9193 27.398C24.4257 27.398 26.0398 26.8217 27.6 25.4597L29.7521 27.8694C27.4924 29.6505 24.91 30.6458 22.3275 30.6458C17.2164 30.6458 13.9883 27.3456 14.7415 22.6833C15.4948 18.021 19.8526 14.7207 24.9638 14.7207C27.4386 14.7207 29.7521 15.6636 31.3661 17.3924L28.3532 19.8021C27.4924 18.702 26.0398 17.9686 24.4257 17.9686C21.3591 17.9686 18.9918 19.9069 18.5076 22.6833C18.0772 25.4597 19.7988 27.398 22.9193 27.398Z" fill="#A5A1FF"></path>
                                        </svg>